<svg width="400" height="401" viewBox="0 0 400 401" fill="none" xmlns="http://www.w3.org/2000/svg">
<path d="M90.784 154.958C128.11 154.958 158.368 185.216 158.368 222.542H141.394C139.933 195.858 117.832 174.67 90.783 174.67C83.4623 174.67 76.4896 176.226 70.1902 179.029C53.2799 186.557 41.2393 203.083 40.1736 222.542H23.2C23.2 185.216 53.4584 154.958 90.784 154.958ZM85.1512 222.542H51.4608C52.5088 207.692 61.7799 195.102 74.7703 189.319C78.0193 187.873 81.5025 186.856 85.1512 186.335V222.542ZM96.4168 186.336C114.61 188.939 128.797 203.962 130.108 222.542H96.4168V186.336Z" fill="url(#paint0_linear_491_522)"/>
<path d="M224.355 188.306C228.614 188.306 231.994 189.597 234.492 192.177C237.032 194.758 238.301 198.342 238.301 202.929V222.959H227.857V204.342C227.857 202.13 227.263 200.431 226.075 199.243C224.928 198.014 223.331 197.4 221.283 197.4C219.235 197.4 217.617 198.014 216.429 199.243C215.282 200.431 214.708 202.13 214.708 204.342V222.959H204.264V204.342C204.264 202.13 203.67 200.431 202.482 199.243C201.335 198.014 199.738 197.4 197.69 197.4C195.642 197.4 194.024 198.014 192.836 199.243C191.689 200.431 191.116 202.13 191.116 204.342V222.959H180.609V188.675H191.116V192.976C192.18 191.542 193.573 190.416 195.293 189.597C197.014 188.737 198.959 188.306 201.13 188.306C203.711 188.306 206.004 188.859 208.012 189.965C210.06 191.071 211.657 192.648 212.804 194.696C213.992 192.812 215.61 191.276 217.658 190.088C219.706 188.9 221.938 188.306 224.355 188.306ZM261.255 223.45C257.896 223.45 254.865 222.733 252.162 221.3C249.5 219.866 247.39 217.818 245.834 215.156C244.318 212.493 243.56 209.38 243.56 205.817C243.56 202.294 244.339 199.202 245.895 196.539C247.452 193.836 249.581 191.768 252.285 190.334C254.988 188.9 258.019 188.184 261.378 188.184C264.737 188.184 267.768 188.9 270.471 190.334C273.174 191.768 275.304 193.836 276.861 196.539C278.417 199.202 279.196 202.294 279.196 205.817C279.196 209.339 278.397 212.452 276.799 215.156C275.243 217.818 273.092 219.866 270.348 221.3C267.645 222.733 264.614 223.45 261.255 223.45ZM261.255 214.357C263.262 214.357 264.962 213.62 266.355 212.145C267.788 210.671 268.505 208.561 268.505 205.817C268.505 203.073 267.809 200.963 266.416 199.489C265.064 198.014 263.385 197.277 261.378 197.277C259.33 197.277 257.63 198.014 256.278 199.489C254.927 200.922 254.251 203.032 254.251 205.817C254.251 208.561 254.906 210.671 256.217 212.145C257.569 213.62 259.248 214.357 261.255 214.357ZM300.191 213.128L307.625 188.675H318.807L306.642 222.959H293.678L281.513 188.675H292.756L300.191 213.128ZM338.835 223.45C335.476 223.45 332.445 222.733 329.742 221.3C327.08 219.866 324.97 217.818 323.414 215.156C321.898 212.493 321.14 209.38 321.14 205.817C321.14 202.294 321.919 199.202 323.475 196.539C325.032 193.836 327.161 191.768 329.865 190.334C332.568 188.9 335.599 188.184 338.958 188.184C342.317 188.184 345.348 188.9 348.051 190.334C350.754 191.768 352.884 193.836 354.441 196.539C355.997 199.202 356.776 202.294 356.776 205.817C356.776 209.339 355.977 212.452 354.379 215.156C352.823 217.818 350.672 219.866 347.928 221.3C345.225 222.733 342.194 223.45 338.835 223.45ZM338.835 214.357C340.842 214.357 342.542 213.62 343.935 212.145C345.368 210.671 346.085 208.561 346.085 205.817C346.085 203.073 345.389 200.963 343.996 199.489C342.644 198.014 340.965 197.277 338.958 197.277C336.91 197.277 335.21 198.014 333.858 199.489C332.507 200.922 331.831 203.032 331.831 205.817C331.831 208.561 332.486 210.671 333.797 212.145C335.149 213.62 336.828 214.357 338.835 214.357ZM367.264 223.45C365.421 223.45 363.906 222.918 362.718 221.853C361.571 220.747 360.998 219.395 360.998 217.798C360.998 216.159 361.571 214.787 362.718 213.681C363.906 212.575 365.421 212.022 367.264 212.022C369.067 212.022 370.541 212.575 371.688 213.681C372.876 214.787 373.47 216.159 373.47 217.798C373.47 219.395 372.876 220.747 371.688 221.853C370.541 222.918 369.067 223.45 367.264 223.45Z" fill="url(#paint1_linear_491_522)"/>
<defs>
<linearGradient id="paint0_linear_491_522" x1="23.2" y1="188.75" x2="158.368" y2="188.75" gradientUnits="userSpaceOnUse">
<stop stop-color="#78B3D0"/>
<stop offset="1" stop-color="#1E81B0"/>
</linearGradient>
<linearGradient id="paint1_linear_491_522" x1="176.8" y1="200.959" x2="376.8" y2="200.959" gradientUnits="userSpaceOnUse">
<stop stop-color="#1E81B0"/>
<stop offset="1" stop-color="#78B3D0"/>
</linearGradient>
</defs>
</svg>
